HIERARCHY
ROOT newVegas:Hips
{
	OFFSET 0.000000 96.479958 0.000000
	CHANNELS 6 Xposition Yposition Zposition Xrotation Yrotation Zrotation
	JOINT newVegas:Pelvis
	{
		OFFSET 0.000000 0.000000 0.000000
		CHANNELS 3 Xrotation Yrotation Zrotation
		JOINT newVegas:LeftUpLeg
		{
			OFFSET 18.735201 -5.666702 -4.541200
			CHANNELS 3 Xrotation Yrotation Zrotation
			JOINT newVegas:LeftLeg
			{
				OFFSET -0.021200 -31.938179 0.493100
				CHANNELS 3 Xrotation Yrotation Zrotation
				JOINT newVegas:LeftFoot
				{
					OFFSET 0.021200 -31.938179 -4.336299
					CHANNELS 3 Xrotation Yrotation Zrotation
					JOINT newVegas:LeftToeBase
					{
						OFFSET 0.943001 -26.722000 15.023500
						CHANNELS 3 Xrotation Yrotation Zrotation
						End Site
						{
							OFFSET 0.000000 30.670183 0.000000
						}
					}
				}
				JOINT newVegas:Left_PantLeg
				{
					OFFSET 0.663870 -9.044666 -1.108900
					CHANNELS 3 Xrotation Yrotation Zrotation
					End Site
					{
						OFFSET 1.415995 20.635357 0.000000
					}
				}
			}
		}
		JOINT newVegas:RightUpLeg
		{
			OFFSET -18.735201 -5.666702 -4.541200
			CHANNELS 3 Xrotation Yrotation Zrotation
			JOINT newVegas:RightLeg
			{
				OFFSET 0.018946 -31.938133 0.493100
				CHANNELS 3 Xrotation Yrotation Zrotation
				JOINT newVegas:RightFoot
				{
					OFFSET -0.018946 -31.938126 -4.336299
					CHANNELS 3 Xrotation Yrotation Zrotation
					JOINT newVegas:RightToeBase
					{
						OFFSET -0.943001 -26.722004 15.023500
						CHANNELS 3 Xrotation Yrotation Zrotation
						End Site
						{
							OFFSET 0.000000 30.670187 0.000000
						}
					}
				}
				JOINT newVegas:Right_PantLeg
				{
					OFFSET -0.661674 -9.044716 -1.108900
					CHANNELS 3 Xrotation Yrotation Zrotation
					End Site
					{
						OFFSET -1.415958 20.635269 0.000000
					}
				}
			}
		}
	}
	JOINT newVegas:Spine
	{
		OFFSET 0.000000 10.199997 -0.299500
		CHANNELS 3 Xrotation Yrotation Zrotation
		JOINT newVegas:Spine1
		{
			OFFSET 0.000000 11.900002 -1.516600
			CHANNELS 3 Xrotation Yrotation Zrotation
			JOINT newVegas:Spine2
			{
				OFFSET 0.000000 13.600006 -2.842500
				CHANNELS 3 Xrotation Yrotation Zrotation
				JOINT newVegas:Neck
				{
					OFFSET 0.000000 9.624100 -2.890100
					CHANNELS 3 Xrotation Yrotation Zrotation
					JOINT newVegas:Head
					{
						OFFSET 0.000000 14.068802 -1.351900
						CHANNELS 3 Xrotation Yrotation Zrotation
						JOINT newVegas:Hair_Back
						{
							OFFSET 0.000000 3.231903 -17.524799
							CHANNELS 3 Xrotation Yrotation Zrotation
							End Site
							{
								OFFSET 0.000000 19.849884 0.000000
							}
						}
						JOINT newVegas:Hair_Front
						{
							OFFSET 0.000000 31.260406 4.573800
							CHANNELS 3 Xrotation Yrotation Zrotation
							JOINT newVegas:Hair_Front1
							{
								OFFSET 0.000000 2.284103 11.993300
								CHANNELS 3 Xrotation Yrotation Zrotation
								JOINT newVegas:Hair_Front2
								{
									OFFSET 0.000000 2.284103 11.993300
									CHANNELS 3 Xrotation Yrotation Zrotation
									End Site
									{
										OFFSET 0.000000 12.208862 0.000000
									}
								}
							}
						}
						JOINT newVegas:Jowel
						{
							OFFSET 0.000000 -7.458206 6.864100
							CHANNELS 3 Xrotation Yrotation Zrotation
							End Site
							{
								OFFSET 0.000000 19.849884 0.000000
							}
						}
					}
				}
				JOINT newVegas:LeftShoulder
				{
					OFFSET 15.263000 10.923401 -0.547700
					CHANNELS 3 Xrotation Yrotation Zrotation
					JOINT newVegas:LeftArm
					{
						OFFSET 25.438599 -2.830597 -13.032500
						CHANNELS 3 Xrotation Yrotation Zrotation
						JOINT newVegas:LeftForeArm
						{
							OFFSET 29.960503 0.000000 0.000000
							CHANNELS 3 Xrotation Yrotation Zrotation
							JOINT newVegas:LeftHand
							{
								OFFSET 27.849251 0.000000 0.000000
								CHANNELS 3 Xrotation Yrotation Zrotation
								JOINT newVegas:LeftHandThumb1
								{
									OFFSET 4.487587 -3.305161 6.305391
									CHANNELS 3 Xrotation Yrotation Zrotation
									JOINT newVegas:LeftHandThumb2
									{
										OFFSET 5.480453 -3.164139 3.164143
										CHANNELS 3 Xrotation Yrotation Zrotation
										JOINT newVegas:LeftHandThumb3
										{
											OFFSET 5.159721 -2.978973 2.978967
											CHANNELS 3 Xrotation Yrotation Zrotation
											End Site
											{
												OFFSET 2.494507 5.926697 1.738678
											}
										}
									}
								}
								JOINT newVegas:LeftHandIndex1
								{
									OFFSET 18.578728 -0.527832 5.208049
									CHANNELS 3 Xrotation Yrotation Zrotation
									JOINT newVegas:LeftHandIndex2
									{
										OFFSET 3.192009 0.000000 0.000000
										CHANNELS 3 Xrotation Yrotation Zrotation
										JOINT newVegas:LeftHandIndex3
										{
											OFFSET 3.835129 0.000000 0.000000
											CHANNELS 3 Xrotation Yrotation Zrotation
											End Site
											{
												OFFSET -0.034599 3.816971 0.371180
											}
										}
									}
								}
								JOINT newVegas:LeftHandMiddle1
								{
									OFFSET 18.476105 0.000000 0.000000
									CHANNELS 3 Xrotation Yrotation Zrotation
									JOINT newVegas:LeftHandMiddle2
									{
										OFFSET 3.324875 0.000000 0.000000
										CHANNELS 3 Xrotation Yrotation Zrotation
										JOINT newVegas:LeftHandMiddle3
										{
											OFFSET 4.596550 0.000000 0.000000
											CHANNELS 3 Xrotation Yrotation Zrotation
											End Site
											{
												OFFSET 0.057701 4.578827 0.399218
											}
										}
									}
								}
								JOINT newVegas:LeftHandRing1
								{
									OFFSET 17.732719 0.121887 -4.201567
									CHANNELS 3 Xrotation Yrotation Zrotation
									JOINT newVegas:LeftHandRing2
									{
										OFFSET 2.733170 0.000000 0.000000
										CHANNELS 3 Xrotation Yrotation Zrotation
										JOINT newVegas:LeftHandRing3
										{
											OFFSET 3.178268 0.000000 0.000000
											CHANNELS 3 Xrotation Yrotation Zrotation
											End Site
											{
												OFFSET 0.119102 3.170624 0.185394
											}
										}
									}
								}
								JOINT newVegas:LeftHandPinky1
								{
									OFFSET 15.989624 -0.606689 -7.535461
									CHANNELS 3 Xrotation Yrotation Zrotation
									JOINT newVegas:LeftHandPinky2
									{
										OFFSET 2.538986 0.000000 0.000000
										CHANNELS 3 Xrotation Yrotation Zrotation
										JOINT newVegas:LeftHandPinky3
										{
											OFFSET 2.593102 0.000000 0.000000
											CHANNELS 3 Xrotation Yrotation Zrotation
											End Site
											{
												OFFSET -0.150902 2.584198 0.152708
											}
										}
									}
								}
							}
							JOINT newVegas:Left_Sleeve
							{
								OFFSET 0.267448 -0.649796 0.577675
								CHANNELS 3 Xrotation Yrotation Zrotation
								End Site
								{
									OFFSET 0.000000 15.991241 0.000000
								}
							}
							JOINT newVegas:Left_CapeC
							{
								OFFSET 15.715958 -8.608795 -6.935905
								CHANNELS 3 Xrotation Yrotation Zrotation
								JOINT newVegas:Left_CapeC1
								{
									OFFSET 0.000000 -8.688499 0.000000
									CHANNELS 3 Xrotation Yrotation Zrotation
									End Site
									{
										OFFSET 0.000000 8.688499 0.000000
									}
								}
							}
						}
						JOINT newVegas:Left_CapeB
						{
							OFFSET 26.118385 -8.608795 -7.079235
							CHANNELS 3 Xrotation Yrotation Zrotation
							JOINT newVegas:Left_CapeB1
							{
								OFFSET 0.000000 -8.688499 0.000000
								CHANNELS 3 Xrotation Yrotation Zrotation
								End Site
								{
									OFFSET 0.000000 8.688499 0.000000
								}
							}
						}
						JOINT newVegas:Left_CapeA
						{
							OFFSET 5.115639 -8.608795 -10.395809
							CHANNELS 3 Xrotation Yrotation Zrotation
							JOINT newVegas:Left_CapeA1
							{
								OFFSET 0.000000 -8.688499 0.000000
								CHANNELS 3 Xrotation Yrotation Zrotation
								End Site
								{
									OFFSET 0.000000 8.688499 0.000000
								}
							}
						}
					}
				}
				JOINT newVegas:RightShoulder
				{
					OFFSET -15.263000 10.923401 -0.547700
					CHANNELS 3 Xrotation Yrotation Zrotation
					JOINT newVegas:RightArm
					{
						OFFSET -25.438599 -2.830597 -13.032500
						CHANNELS 3 Xrotation Yrotation Zrotation
						JOINT newVegas:RightForeArm
						{
							OFFSET -29.960503 0.000000 0.000000
							CHANNELS 3 Xrotation Yrotation Zrotation
							JOINT newVegas:RightHand
							{
								OFFSET -27.849251 0.000000 0.000000
								CHANNELS 3 Xrotation Yrotation Zrotation
								JOINT newVegas:RightHandThumb1
								{
									OFFSET -4.487587 -3.305161 6.305391
									CHANNELS 3 Xrotation Yrotation Zrotation
									JOINT newVegas:RightHandThumb2
									{
										OFFSET -5.480453 -3.164139 3.164143
										CHANNELS 3 Xrotation Yrotation Zrotation
										JOINT newVegas:RightHandThumb3
										{
											OFFSET -5.159721 -2.978973 2.978967
											CHANNELS 3 Xrotation Yrotation Zrotation
											End Site
											{
												OFFSET -2.494507 5.926697 1.738678
											}
										}
									}
								}
								JOINT newVegas:RightHandIndex1
								{
									OFFSET -18.578728 -0.527832 5.208049
									CHANNELS 3 Xrotation Yrotation Zrotation
									JOINT newVegas:RightHandIndex2
									{
										OFFSET -3.192009 0.000000 0.000000
										CHANNELS 3 Xrotation Yrotation Zrotation
										JOINT newVegas:RightHandIndex3
										{
											OFFSET -3.835129 0.000000 0.000000
											CHANNELS 3 Xrotation Yrotation Zrotation
											End Site
											{
												OFFSET 0.034599 3.816971 0.371180
											}
										}
									}
								}
								JOINT newVegas:RightHandMiddle1
								{
									OFFSET -18.476105 0.000000 0.000000
									CHANNELS 3 Xrotation Yrotation Zrotation
									JOINT newVegas:RightHandMiddle2
									{
										OFFSET -3.324875 0.000000 0.000000
										CHANNELS 3 Xrotation Yrotation Zrotation
										JOINT newVegas:RightHandMiddle3
										{
											OFFSET -4.596550 0.000000 0.000000
											CHANNELS 3 Xrotation Yrotation Zrotation
											End Site
											{
												OFFSET -0.057701 4.578827 0.399218
											}
										}
									}
								}
								JOINT newVegas:RightHandRing1
								{
									OFFSET -17.732719 0.121887 -4.201567
									CHANNELS 3 Xrotation Yrotation Zrotation
									JOINT newVegas:RightHandRing2
									{
										OFFSET -2.733170 0.000000 0.000000
										CHANNELS 3 Xrotation Yrotation Zrotation
										JOINT newVegas:RightHandRing3
										{
											OFFSET -3.178268 0.000000 0.000000
											CHANNELS 3 Xrotation Yrotation Zrotation
											End Site
											{
												OFFSET -0.119102 3.170624 0.185394
											}
										}
									}
								}
								JOINT newVegas:RightHandPinky1
								{
									OFFSET -15.989624 -0.606689 -7.535461
									CHANNELS 3 Xrotation Yrotation Zrotation
									JOINT newVegas:RightHandPinky2
									{
										OFFSET -2.538986 0.000000 0.000000
										CHANNELS 3 Xrotation Yrotation Zrotation
										JOINT newVegas:RightHandPinky3
										{
											OFFSET -2.593102 0.000000 0.000000
											CHANNELS 3 Xrotation Yrotation Zrotation
											End Site
											{
												OFFSET 0.150902 2.584198 0.152708
											}
										}
									}
								}
							}
							JOINT newVegas:Right_CapeC
							{
								OFFSET -15.715958 -8.608795 -6.935905
								CHANNELS 3 Xrotation Yrotation Zrotation
								JOINT newVegas:Right_CapeC1
								{
									OFFSET 0.000000 -8.688499 0.000000
									CHANNELS 3 Xrotation Yrotation Zrotation
									End Site
									{
										OFFSET 0.000000 8.688499 0.000000
									}
								}
							}
							JOINT newVegas:Right_Sleeve
							{
								OFFSET -0.267448 -0.649994 0.577675
								CHANNELS 3 Xrotation Yrotation Zrotation
								End Site
								{
									OFFSET 0.000000 15.991302 0.000000
								}
							}
						}
						JOINT newVegas:Right_CapeA
						{
							OFFSET -5.115540 -8.608795 -10.395824
							CHANNELS 3 Xrotation Yrotation Zrotation
							JOINT newVegas:Right_CapeA1
							{
								OFFSET 0.000000 -8.688499 0.000000
								CHANNELS 3 Xrotation Yrotation Zrotation
								End Site
								{
									OFFSET 0.000000 8.688499 0.000000
								}
							}
						}
						JOINT newVegas:Right_CapeB
						{
							OFFSET -26.118187 -8.608795 -7.079266
							CHANNELS 3 Xrotation Yrotation Zrotation
							JOINT newVegas:Right_CapeB1
							{
								OFFSET 0.000000 -8.688499 0.000000
								CHANNELS 3 Xrotation Yrotation Zrotation
								End Site
								{
									OFFSET 0.000000 8.688499 0.000000
								}
							}
						}
					}
				}
				JOINT newVegas:Left_Collar
				{
					OFFSET 18.625099 8.655502 8.828100
					CHANNELS 3 Xrotation Yrotation Zrotation
					JOINT newVegas:Left_Collar1
					{
						OFFSET 14.783401 10.540405 -1.259500
						CHANNELS 3 Xrotation Yrotation Zrotation
						End Site
						{
							OFFSET 0.000000 18.199875 0.000000
						}
					}
				}
				JOINT newVegas:Collar_Back
				{
					OFFSET 0.000000 15.630707 -20.132601
					CHANNELS 3 Xrotation Yrotation Zrotation
					End Site
					{
						OFFSET 0.000000 22.523010 0.000000
					}
				}
				JOINT newVegas:Left_Peck
				{
					OFFSET 17.239599 -5.132599 25.482599
					CHANNELS 3 Xrotation Yrotation Zrotation
					End Site
					{
						OFFSET 0.000000 22.523010 0.000000
					}
				}
				JOINT newVegas:Right_Peck
				{
					OFFSET -17.239599 -5.132202 25.482599
					CHANNELS 3 Xrotation Yrotation Zrotation
					End Site
					{
						OFFSET 0.000000 22.523010 0.000000
					}
				}
				JOINT newVegas:Right_Collar
				{
					OFFSET -18.625099 8.655792 8.828100
					CHANNELS 3 Xrotation Yrotation Zrotation
					JOINT newVegas:Right_Collar1
					{
						OFFSET -14.783401 10.539993 -1.259500
						CHANNELS 3 Xrotation Yrotation Zrotation
						End Site
						{
							OFFSET 0.000000 18.199631 0.000000
						}
					}
				}
			}
		}
		JOINT newVegas:Belly
		{
			OFFSET 0.000000 -6.540398 9.014299
			CHANNELS 3 Xrotation Yrotation Zrotation
			End Site
			{
				OFFSET 0.000000 11.566666 0.000000
			}
		}
	}
	JOINT newVegas:ElvisFacialAnim_Joint
	{
		OFFSET 1.000000 -95.330101 -8.825800
		CHANNELS 3 Xrotation Yrotation Zrotation
		End Site
		{
			OFFSET 0.000000 35.315800 0.000000
		}
	}
}
MOTION
Frames: 4
Frame Time: 0.016667
0.584307 79.158318 -1.904718 -11.643226 4.205876 0.346039 -0.000001 0.000000 -0.000000 -37.135643 -6.144024 16.411027 74.830255 -1.966064 0.236349 -25.217231 -2.444750 -14.190721 0.000000 -0.000000 -0.000000 0.000003 -0.000001 0.000000 -29.901158 -3.768743 -21.868727 75.942537 1.645896 -0.345650 -32.358673 -3.647117 13.702831 0.000000 -0.000000 0.000000 0.000000 0.000001 -0.000000 23.956308 0.086081 0.833559 13.992115 -0.012110 0.874928 13.993085 -0.019271 0.870005 3.421878 -0.204106 -0.250901 3.421892 -0.204106 -0.250902 0.000001 -0.000000 0.000000 3.421867 -0.204108 -0.250901 3.421891 -0.204103 -0.250902 -0.000001 0.000000 0.000000 0.000001 -0.000000 0.000000 1.274360 -20.464773 -8.784592 -24.361975 0.125575 -58.409531 -134.037135 -77.572425 -130.766294 -10.954457 -21.976286 17.417650 20.303040 9.934858 -19.709481 3.939249 33.659473 6.068777 0.000001 -0.000003 -0.000001 11.348457 7.907839 -58.203696 11.226031 12.103237 -91.045561 -0.000000 -0.000002 0.000001 -3.306155 14.721223 -56.170185 18.751019 6.507065 -95.555569 0.000000 0.000001 -0.000002 -8.496643 16.099222 -73.492221 10.309629 4.265367 -84.428378 -0.000002 0.000001 -0.000000 -15.187832 25.469022 -80.134074 11.543896 -3.632292 -77.864088 0.000003 -0.000002 0.000002 0.000001 -0.000000 -0.000001 0.000001 -0.000000 -0.000001 0.000001 0.000000 -0.000001 0.000000 0.000000 0.000001 0.000001 0.000000 -0.000000 0.000000 0.000000 0.000001 -0.000000 -0.000000 0.000001 4.281750 6.062522 24.486797 -20.183593 30.544005 38.966919 -101.168571 66.637375 94.218655 -10.108796 25.059862 -19.829315 9.450199 -8.378777 2.091204 9.478079 -37.583027 5.312516 -0.000001 -0.000000 -0.000001 9.382210 -23.801882 56.987161 11.353617 -12.107985 91.751386 0.000000 0.000001 0.000002 -6.258893 -19.691611 58.403192 17.354297 -6.618584 88.873370 0.000002 0.000003 0.000004 -12.782190 -20.150861 66.716079 10.303231 -4.268381 84.398291 0.000001 -0.000001 0.000001 -20.835268 -25.749950 77.824309 11.580039 3.626353 78.017330 -0.000001 0.000002 -0.000000 -0.000000 -0.000001 -0.000000 -0.000000 -0.000000 -0.000002 -0.000000 -0.000001 -0.000000 0.000001 0.000002 0.000003 0.000002 0.000002 0.000003 0.000001 0.000002 0.000003 0.000002 0.000002 0.000003 0.000002 0.000000 -0.000000 0.000002 0.000000 -0.000000 0.000002 0.000000 -0.000000 0.000002 0.000000 -0.000000 0.000002 0.000000 -0.000000 0.000002 0.000000 -0.000000 0.000002 0.000000 -0.000000 -0.000000 0.000000 -0.000000 -0.000001 0.000000 -0.000000 
0.537150 79.476883 -1.632299 -12.233264 4.229028 0.329640 -0.000000 -0.000000 0.000000 -35.774953 -6.166359 16.453950 74.206003 -1.956553 0.232955 -25.344517 -2.281874 -14.279476 -0.000000 0.000000 -0.000000 -0.000001 0.000000 -0.000000 -28.538858 -4.112463 -21.694735 75.152927 1.648227 -0.339971 -32.394597 -3.712675 13.646455 -0.000000 -0.000002 0.000000 -0.000001 -0.000001 -0.000002 23.831100 0.076083 0.817946 13.805198 -0.026556 0.877420 13.806111 -0.034361 0.873753 3.216229 -0.222854 -0.258420 3.216205 -0.222855 -0.258420 -0.000003 0.000000 -0.000000 3.216269 -0.222855 -0.258420 3.216126 -0.222854 -0.258420 -0.000004 -0.000000 0.000000 -0.000003 0.000000 -0.000000 1.202831 -20.287496 -9.383894 -23.683024 -0.501276 -58.145059 -129.876853 -77.684659 -126.406147 -10.999889 -21.654351 17.436751 20.302807 9.934912 -19.709083 3.939233 33.659466 6.068796 0.000001 -0.000002 0.000000 11.348450 7.907824 -58.203689 11.226465 12.103510 -91.045609 0.000002 -0.000000 0.000003 -3.306143 14.721226 -56.170192 18.751063 6.507048 -95.555583 0.000001 -0.000001 -0.000000 -8.496643 16.099222 -73.492228 10.309657 4.265549 -84.428399 0.000001 -0.000001 0.000002 -15.187855 25.469004 -80.134054 11.543893 -3.632284 -77.864081 0.000001 -0.000000 0.000002 0.000000 -0.000000 -0.000000 0.000000 -0.000000 -0.000000 0.000000 -0.000000 -0.000000 0.000001 -0.000001 -0.000001 0.000001 -0.000001 -0.000002 0.000001 -0.000001 -0.000001 0.000001 -0.000002 -0.000000 4.360494 5.935284 25.053795 -19.084846 29.887682 38.977239 -103.118235 67.822863 95.667188 -10.145674 25.283415 -19.500484 9.446304 -8.364341 2.093530 9.477946 -37.583075 5.312444 -0.000000 -0.000002 -0.000001 9.382249 -23.801876 56.987174 11.353630 -12.108309 91.751400 -0.000000 -0.000000 0.000002 -6.258479 -19.691504 58.403233 17.354315 -6.618608 88.873349 0.000001 0.000001 0.000004 -12.782132 -20.150848 66.716058 10.303211 -4.268374 84.398264 0.000001 -0.000001 -0.000001 -20.835246 -25.749963 77.824302 11.580034 3.626358 78.017365 0.000001 0.000003 -0.000001 0.000001 -0.000001 0.000002 0.000001 -0.000001 0.000002 0.000001 -0.000001 0.000002 -0.000001 0.000001 -0.000001 -0.000001 0.000002 0.000001 -0.000001 0.000001 -0.000001 -0.000001 0.000002 0.000001 0.000001 -0.000000 0.000000 0.000001 -0.000000 0.000000 0.000001 -0.000000 0.000000 0.000001 -0.000000 0.000000 0.000001 -0.000000 0.000000 0.000001 -0.000000 0.000000 0.000001 -0.000000 0.000000 -0.000001 0.000000 -0.000000 -0.000000 -0.000000 0.000000 
0.478187 79.755890 -1.367811 -12.400174 4.261242 0.336414 -0.000001 0.000001 0.000000 -34.902277 -6.160353 16.452963 73.543188 -1.934293 0.230246 -25.374942 -2.147825 -14.367843 -0.000000 -0.000000 0.000000 0.000003 0.000001 0.000001 -27.694197 -4.387199 -21.548832 74.446842 1.624990 -0.335057 -32.410617 -3.779506 13.591837 0.000000 -0.000000 -0.000000 0.000000 0.000003 -0.000001 23.645232 0.052605 0.807724 13.485199 -0.074092 0.867700 13.486086 -0.083624 0.864977 3.009986 -0.222181 -0.283306 3.010002 -0.222181 -0.283305 0.000002 -0.000000 -0.000000 3.010038 -0.222179 -0.283306 3.010021 -0.222184 -0.283306 0.000002 -0.000000 -0.000000 0.000002 -0.000000 -0.000000 1.157235 -20.150260 -9.778062 -22.947110 -1.113762 -58.002909 -128.515992 -78.463861 -124.614752 -11.059324 -21.593653 17.251429 20.302568 9.934965 -19.708704 3.939289 33.659510 6.068744 0.000004 0.000001 -0.000003 11.348461 7.907839 -58.203689 11.226858 12.103758 -91.045623 -0.000000 0.000000 -0.000003 -3.306149 14.721243 -56.170181 18.751070 6.507049 -95.555596 -0.000000 -0.000000 -0.000004 -8.496645 16.099241 -73.492207 10.309663 4.265804 -84.428467 -0.000001 -0.000001 0.000003 -15.187872 25.469012 -80.134040 11.543903 -3.632275 -77.864081 0.000003 0.000002 0.000003 0.000000 -0.000000 0.000002 0.000000 -0.000000 0.000002 0.000000 0.000000 0.000002 0.000000 -0.000001 0.000000 0.000001 0.000000 0.000000 0.000000 -0.000001 0.000000 0.000001 -0.000000 0.000000 4.416291 5.793503 25.390707 -17.739856 29.670168 39.116750 -104.281573 68.988626 96.225925 -10.264633 25.068425 -18.893381 9.441749 -8.346800 2.096343 9.477879 -37.583116 5.312424 0.000000 0.000004 -0.000004 9.382249 -23.801900 56.987192 11.353700 -12.108554 91.751400 0.000000 0.000001 -0.000000 -6.258148 -19.691417 58.403267 17.354315 -6.618600 88.873322 0.000000 0.000001 0.000002 -12.782143 -20.150851 66.716065 10.303229 -4.268388 84.398325 -0.000000 0.000001 -0.000001 -20.835231 -25.749960 77.824282 11.580039 3.626354 78.017358 0.000002 -0.000002 0.000005 -0.000000 -0.000000 -0.000001 -0.000000 -0.000000 -0.000001 -0.000000 -0.000000 -0.000001 0.000000 0.000000 -0.000001 0.000000 0.000000 -0.000001 0.000000 0.000000 -0.000001 0.000000 -0.000000 -0.000001 -0.000001 0.000000 -0.000000 -0.000001 0.000000 -0.000000 -0.000001 0.000000 -0.000000 -0.000001 0.000000 -0.000000 -0.000001 0.000000 -0.000000 -0.000001 0.000000 -0.000000 -0.000001 0.000000 -0.000000 0.000000 0.000000 -0.000000 -0.000001 0.000001 0.000000 
0.408647 80.021317 -1.095148 -12.415270 4.298799 0.359846 -0.000000 0.000000 -0.000000 -34.197620 -6.112912 16.457254 72.851713 -1.936343 0.227278 -25.370391 -2.036023 -14.442606 -0.000000 0.000000 -0.000000 -0.000001 0.000001 -0.000000 -27.030218 -4.654808 -21.428153 73.773433 1.621185 -0.329879 -32.435493 -3.852120 13.516360 0.000000 -0.000002 -0.000000 0.000002 0.000001 -0.000000 23.415070 0.009001 0.804981 13.067815 -0.162275 0.825651 13.068608 -0.171245 0.822490 2.798000 -0.213688 -0.319595 2.798040 -0.213688 -0.319595 -0.000003 0.000000 -0.000000 2.798071 -0.213688 -0.319595 2.797975 -0.213688 -0.319596 -0.000002 0.000000 -0.000000 -0.000003 0.000000 0.000000 1.128236 -20.026950 -10.044964 -22.214340 -1.700950 -57.924628 -130.356988 -79.992375 -125.863652 -11.142042 -21.528970 16.750342 20.302392 9.935024 -19.708355 3.939224 33.659483 6.068778 -0.000001 -0.000000 -0.000003 11.348452 7.907835 -58.203696 11.227263 12.103989 -91.045677 0.000001 0.000000 -0.000001 -3.306147 14.721226 -56.170209 18.751055 6.507065 -95.555576 0.000001 -0.000001 -0.000004 -8.496619 16.099231 -73.492234 10.309675 4.266043 -84.428487 -0.000000 0.000001 0.000002 -15.187839 25.469016 -80.134088 11.543899 -3.632266 -77.864088 0.000003 -0.000004 0.000003 0.000000 -0.000001 -0.000000 0.000000 -0.000001 -0.000000 0.000000 -0.000000 0.000000 -0.000000 -0.000001 0.000000 0.000000 -0.000001 -0.000000 -0.000000 -0.000001 0.000000 0.000000 -0.000001 0.000000 4.462494 5.633524 25.560924 -16.203651 29.709089 39.388195 -105.211886 70.240784 96.452072 -10.509752 24.499117 -18.061371 9.436417 -8.325845 2.099699 9.477760 -37.583143 5.312394 -0.000000 -0.000003 -0.000003 9.382259 -23.801913 56.987198 11.353741 -12.108746 91.751413 0.000001 -0.000000 -0.000002 -6.257867 -19.691347 58.403315 17.354324 -6.618604 88.873335 0.000001 0.000000 -0.000004 -12.782126 -20.150865 66.716086 10.303220 -4.268387 84.398298 0.000003 0.000002 -0.000000 -20.835238 -25.749957 77.824296 11.580015 3.626368 78.017358 -0.000001 0.000003 0.000001 0.000000 0.000000 -0.000000 0.000000 0.000000 -0.000002 0.000000 0.000000 -0.000000 -0.000001 0.000000 -0.000000 -0.000000 0.000000 -0.000001 -0.000001 0.000000 -0.000000 -0.000000 -0.000000 -0.000001 -0.000001 0.000000 -0.000000 -0.000001 0.000000 -0.000000 -0.000001 0.000000 -0.000000 -0.000001 0.000000 -0.000000 -0.000001 0.000000 -0.000000 -0.000001 0.000000 -0.000000 -0.000001 0.000000 -0.000000 0.000001 0.000000 0.000000 -0.000000 0.000000 -0.000000 
